<?xml version="1.0" encoding="UTF-8" standalone="no"?>
<!-- Created with Inkscape (http://www.inkscape.org/) -->

<svg
   width="610.27643mm"
   height="297.86649mm"
   viewBox="0 0 610.27643 297.86649"
   version="1.1"
   id="svg1"
   xml:space="preserve"
   inkscape:version="1.3 (0e150ed, 2023-07-21)"
   sodipodi:docname="iToph.svg"
   xmlns:inkscape="http://www.inkscape.org/namespaces/inkscape"
   xmlns:sodipodi="http://sodipodi.sourceforge.net/DTD/sodipodi-0.dtd"
   xmlns="http://www.w3.org/2000/svg"
   xmlns:svg="http://www.w3.org/2000/svg"><sodipodi:namedview
     id="namedview1"
     pagecolor="#505050"
     bordercolor="#eeeeee"
     borderopacity="1"
     inkscape:showpageshadow="0"
     inkscape:pageopacity="0"
     inkscape:pagecheckerboard="0"
     inkscape:deskcolor="#505050"
     inkscape:document-units="mm"
     inkscape:zoom="0.52625669"
     inkscape:cx="311.63499"
     inkscape:cy="642.27212"
     inkscape:window-width="1728"
     inkscape:window-height="979"
     inkscape:window-x="0"
     inkscape:window-y="38"
     inkscape:window-maximized="0"
     inkscape:current-layer="layer3" /><defs
     id="defs1"><mask
       maskUnits="userSpaceOnUse"
       id="mask1"><rect
         style="display:inline;fill:#f9f9f9;fill-opacity:1;stroke:none;stroke-width:1.36103"
         id="rect1"
         width="860.78467"
         height="419.43896"
         x="30.031912"
         y="-126.05695"
         ry="0">&#10;       <animate
   attributeName="fill"
   values="#f9b71b;#1294df;#ed539b;#a3c93e;#f9b71b"
   dur="8s"
   repeatCount="indefinite" />&#10;     </rect></mask><mask
       maskUnits="userSpaceOnUse"
       id="mask1-3"><rect
         style="display:inline;fill:#f9f9f9;fill-opacity:1;stroke:none;stroke-width:1.36103"
         id="rect1-8"
         width="860.78467"
         height="419.43896"
         x="30.031912"
         y="-126.05695"
         ry="0">&#10;       <animate
   attributeName="fill"
   values="#f9b71b;#1294df;#ed539b;#a3c93e;#f9b71b"
   dur="8s"
   repeatCount="indefinite" />&#10;     </rect></mask></defs><g
     inkscape:label="bg"
     inkscape:groupmode="layer"
     id="layer1"
     style="display:inline"
     transform="translate(0.39999931,0.39999931)"><rect
       style="fill:#f9b71b;fill-opacity:1;stroke:none;stroke-width:0.963416"
       id="bgRect"
       width="609.31299"
       height="296.90308"
       x="0.081708677"
       y="0.081708677"
       ry="0">&#10;       <animate
   attributeName="fill"
   values="#f9b71b;#1294df;#ed539b;#a3c93e;#f9b71b"
   dur="8s"
   repeatCount="indefinite" />&#10;     </rect></g><g
     inkscape:groupmode="layer"
     id="layer2"
     inkscape:label="colour ref"
     sodipodi:insensitive="true"
     style="display:none"
     transform="translate(0.39999931,0.39999931)"><g
       id="g12"
       transform="translate(-3.3859413,-0.3999995)"
       style="display:inline"><rect
         style="fill:#f9b71b;fill-opacity:1;stroke:none;stroke-width:0.799999"
         id="rect3"
         width="99.464378"
         height="66.937111"
         x="363.71063"
         y="0"
         ry="0.69656467" /><rect
         style="fill:#1294df;fill-opacity:1;stroke:none;stroke-width:0.799999"
         id="rect4"
         width="99.464378"
         height="66.937111"
         x="463.17502"
         y="0"
         ry="0.69656467" /><rect
         style="fill:#ed539b;fill-opacity:1;stroke:none;stroke-width:0.799999"
         id="rect6"
         width="99.464378"
         height="66.937111"
         x="363.71063"
         y="66.937111"
         ry="0.69656467" /><rect
         style="fill:#a3c93e;fill-opacity:1;stroke:none;stroke-width:0.799999"
         id="rect7"
         width="99.464378"
         height="66.937111"
         x="463.17502"
         y="66.937111"
         ry="0.69656467" /></g></g><g
     inkscape:groupmode="layer"
     id="layer3"
     inkscape:label="iToph"
     transform="translate(0.40000494,0.40001115)"><g
       id="g6"
       transform="matrix(0.70785762,0,0,0.70785762,-21.176609,89.312084)"
       style="display:inline"
       mask="url(#mask1-3)"><path
         id="path1"
         style="fill:#1a1a1a;stroke-width:1.3"
         d="m 108.85785,25.216691 c 0,0 -5.58116,5.717866 -7.78587,7.50919 -2.204709,1.791326 -5.718404,8.130455 -5.718404,8.130455 l -2.204721,0.343849 c 0,0 -0.353875,-2.554363 0.06935,-3.720284 0.774678,-2.134099 4.271464,-5.3052 4.271464,-5.3052 0,0 -3.996412,2.850643 -5.236577,4.891998 -0.841896,1.385791 -1.308961,4.684666 -1.308961,4.684666 0,0 -1.65346,-0.275225 -3.513682,-0.275225 -1.860222,0 -3.23792,1.170893 -5.029245,1.377585 -1.791325,0.206691 -4.891998,0.344579 -4.891998,0.344579 0,0 1.653727,1.584553 2.342698,1.860142 0.688971,0.275588 1.170984,0.55118 1.170984,0.55118 0,0 -5.786939,2.273984 -6.544808,2.480676 -0.757868,0.20669 -8.061001,3.306898 -6.614161,3.169103 1.446839,-0.137794 3.031125,-0.275225 3.031125,-0.275225 0,0 -3.789547,3.513229 -3.996238,3.995508 -0.206692,0.482281 -7.095709,6.407741 -6.062252,5.994358 1.033457,-0.413382 3.169104,-1.860142 3.169104,-1.860142 0,0 -0.482193,0.551094 -0.757782,1.308962 -0.275588,0.757868 -3.720737,7.302776 -3.789637,7.991747 -0.0689,0.688971 -3.169103,10.05922 -3.169103,10.05922 l 1.584186,-0.826405 0.06935,0.55118 c 0.06889,0.551178 -0.06935,4.960621 -0.06935,4.960621 l 0.827136,-0.620533 c 0,0 0.413656,2.549032 0.482556,3.720283 0.0689,1.171251 0,2.549299 0,2.549299 l 1.308962,-1.722164 c 0,0 0.55118,3.444972 0.55118,4.20284 0,0.757869 2.7559,4.891268 2.7559,4.891268 0,0 1.37768,2.6182 1.722165,3.100479 0.344486,0.48228 0.689157,2.480589 0.689157,3.238459 0,0.75787 0.826405,2.27334 0.826405,2.27334 l 0.206602,2.41132 c 0,0 0.06935,0.96484 0.06935,1.58492 0,0.62007 0.41302,2.41115 0.826405,3.37571 0.413381,0.96455 1.308961,4.40972 1.308961,5.44317 0,1.03346 -0.482191,4.2712 -0.206601,5.99363 0.275587,1.72243 2.291595,3.50711 2.291595,3.50711 0,0 1.100272,1.10047 1.375396,1.92585 0.275126,0.82538 1.100585,7.29097 1.238147,9.49198 0.137562,2.20101 2.063489,7.29097 3.163993,9.49198 1.100501,2.201 6.740459,6.32725 6.740459,6.32725 0,0 1.375493,4.26456 1.65062,5.36507 0.275127,1.10049 2.476296,14.03136 2.476296,14.03136 0,0 -0.825361,2.33903 -0.962923,3.30197 -0.137565,0.96294 -1.375395,7.42816 -1.375395,7.42816 0,0 -9.217051,5.2275 -10.042429,5.36506 -0.825378,0.13757 -14.851548,6.45934 -18.914605,7.98299 -4.063057,1.52365 -19.807224,12.18933 -22.600576,23.36274 -2.793348,11.1734 2.28559,43.42394 3.555295,47.74096 1.269702,4.31699 3.808618,24.88633 3.808618,24.88633 l 68.041179,0.25259 h 138.34184 c -0.16021,-0.77071 -0.8651,-4.14263 -0.8651,-4.46127 0,-0.35534 -1.01549,-10.35562 -1.01549,-10.35562 0,0 -0.20295,-8.37588 -0.20295,-8.83275 0,-0.45686 -0.40609,-4.41573 -0.76143,-7.96912 -0.35534,-3.55338 -3.55296,-20.96503 -3.85753,-22.23409 -0.30458,-1.26907 -3.85826,-14.36646 -3.85826,-14.36646 v -2.63909 c 0,-0.35534 -1.11685,-7.10685 -2.08135,-11.01557 -0.82005,-3.32339 -5.98621,-11.85748 -6.3455,-12.08217 -0.20306,-0.20305 -5.98998,-4.87301 -5.98998,-4.87301 -5.21552,-4.96454 -9.76378,-6.05266 -16.7515,-8.47723 -1.06601,-0.30457 -16.29522,-5.22854 -16.29522,-5.22854 0,0 -17.20825,-4.77198 -18.47731,-5.38113 -1.26907,-0.60915 -10.15266,-3.5531 -10.15266,-3.5531 0,0 -3.29972,-4.5179 -4.16269,-6.64993 -0.86296,-2.13204 -5.63445,-8.62981 -5.63445,-8.62981 0,0 -0.55861,-0.30472 -1.77692,-0.35552 -1.21831,-0.0508 -4.06052,0.4062 -4.72043,0.457 -0.65991,0.0508 -3.55384,-0.25405 -3.55384,-0.25405 0,0 -0.25332,-5.22824 -0.25332,-5.8374 0,-0.60915 -0.40635,-7.10686 -0.25406,-9.49271 0.15229,-2.38585 1.42139,-9.08608 1.42139,-9.08608 0,0 0.65986,-0.20358 0.86291,-0.40663 0.20302,-0.20306 0.20325,-0.76143 0.25405,-1.52286 0.0508,-0.76144 0.40581,-1.26862 0.60886,-1.67472 0.20305,-0.4061 0.65995,-1.47249 0.65995,-1.47249 l 1.87839,-1.52286 c 0,0 1.52266,-1.01523 1.92877,-1.52286 0.4061,-0.50762 2.1826,-2.99466 3.35015,-4.41601 1.16754,-1.42135 1.67573,-5.17783 1.82802,-5.88851 0.15225,-0.71068 -3e-4,-3.35029 -0.0511,-3.80715 -0.0507,-0.45686 -0.0504,-1.87863 0.0511,-2.89388 0.10152,-1.01526 -0.35553,-3.14721 -0.35553,-3.14721 l 0.81181,-3.1983 1.16806,1.21844 c 0,0 -0.25436,-4.009963 -0.30515,-4.314539 -0.0508,-0.304576 -0.71033,-1.979869 -0.71033,-1.979869 0,0 1.52309,1.167475 1.77691,1.624339 0.25381,0.456865 1.21771,2.284299 1.21771,2.284299 0,0 4.4e-4,-1.421383 -0.15185,-2.182823 -0.15229,-0.761442 -1.77673,-2.995011 -1.42139,-2.944251 0.35534,0.05076 1.72582,0.0511 1.72582,0.0511 l -0.60886,-0.203682 c -0.60914,-0.203051 -1.87839,-1.522863 -1.87839,-1.522863 l 1.37029,0.152578 -1.08776,-3.47426 c 0,0 1.8605,0.550904 2.13609,0.619804 0.27559,0.0689 0.68916,0.206602 0.68916,0.206602 l -1.44694,-1.99812 1.37759,0.620534 c 0,0 -1.86005,-5.994454 -2.06674,-6.890116 -0.2067,-0.895664 -1.10236,-2.479946 -1.10236,-2.479946 l 1.10236,1.033006 c 0,0 -0.34432,-0.895491 -0.96439,-2.066743 -0.62008,-1.17125 -1.17098,-5.3052 -1.17098,-5.3052 l 2.20472,1.102361 c 0,0 -0.96521,-1.102367 -1.86087,-2.204721 -0.89566,-1.102354 -1.10173,-3.444608 -1.44621,-4.478065 -0.34449,-1.033457 -3.37653,-8.681181 -3.72102,-9.163461 -0.34448,-0.48228 -5.02924,-4.960621 -5.02924,-4.960621 0,0 1.79143,0.413656 2.5493,0.482556 0.75787,0.0689 3.23773,0.619804 3.23773,0.619804 0,0 -2.41105,-1.309329 -3.03113,-1.584917 -0.62007,-0.275588 -5.71849,-7.785058 -6.61416,-8.542927 -0.89566,-0.757868 -4.30058,-3.197829 -6.82076,-3.926885 -1.0819,-0.312976 -3.37571,-0.137977 -3.37571,-0.137977 0,0 -1.10291,-1.929499 -3.16983,-2.480676 -2.06696,-0.551177 -2.20565,-0.666329 -2.02659,-1.069508 0.49844,-1.122333 9.39853,-4.37294 9.39853,-4.37294 0,0 -9.5764,2.204454 -11.29883,3.375705 -1.72243,1.171251 -3.72028,2.549299 -3.72028,2.549299 0,0 4.4516,-4.188489 5.09203,-4.632833 2.51408,-1.744316 8.5495,-4.324026 8.5495,-4.324026 0,0 -4.20267,1.03411 -6.82077,2.412052 -2.61808,1.377942 -8.12972,5.718402 -8.12972,5.718402 l -1.79152,-0.275955 c 0.74787,-4.209896 6.38322,-6.433508 8.4743,-9.163461 0,0 -5.35349,3.022755 -7.72674,4.953321 -1.47661,1.201173 -3.99551,4.079463 -3.99551,4.079463 0,0 -0.47243,0.268564 -1.91927,0.475256 -1.44684,0.206692 -8.06776,0.964746 -7.86107,0.689158 0.20669,-0.275589 6.20735,-3.858538 7.17191,-4.340818 0.96456,-0.482279 7.37194,-3.720283 7.37194,-3.720283 l -11.0236,4.20284 8.61228,-5.373824 c -5.08153,2.149688 -10.05213,4.203675 -14.39931,7.785146 l 8.54293,-6.958741 4.34082,-3.169103 c 0,0 -5.99392,3.23837 -7.57855,3.996238 -1.58463,0.757869 -4.61604,3.513682 -4.61604,3.513682 0,0 2.20453,-2.342427 2.61792,-2.962502 0.41338,-0.620074 4.75402,-6.614161 4.75402,-6.614161 z" /><path
         id="rect1-5"
         style="opacity:1;fill:#f9f9f9;stroke-width:2.3926"
         d="m 93.741653,103.98574 -1.48e-4,8.53577 c 0,0.75084 0.60479,1.35518 1.355624,1.35518 l 0.118703,2.1e-4 c 0.750834,0 1.355594,-0.60457 1.355594,-1.3554 l -6.7e-5,-2.36956 c -1.399243,-1.2179 -1.487385,-2.68287 -2.027705,-4.15582 -0.166644,-0.40112 -0.482247,-1.19887 -0.802001,-2.01038 z"
         transform="matrix(0.98425241,0.17676874,-0.2181121,0.97592372,0,0)"
         sodipodi:nodetypes="ccccccsc" /><path
         id="path2"
         style="fill:#f9f9f9;stroke-width:2.88044"
         d="m 143.52716,111.2392 c -0.0156,-10e-4 -0.03,-1.1e-4 -0.0429,0.003 -0.31039,0.0776 -0.32804,0.44765 -0.5138,1.50492 0.90201,1.07374 1.36913,1.98981 1.42869,3.13739 0.0836,1.60966 0.0485,3.49385 -1.5376,4.58451 l -1.88412,4.72478 c -0.28533,0.71561 0.073,1.48876 0.80357,1.73323 l 0.21084,0.0708 c 0.73058,0.24448 1.54867,-0.13497 1.834,-0.85059 l 4.32635,-10.8505 c 0.28533,-0.71562 -0.073,-1.48876 -0.80357,-1.73323 l -0.21084,-0.0703 c -0.59251,-0.19827 -1.24284,0.0137 -1.61954,0.48266 -0.24041,-1.20757 -1.5761,-2.70938 -1.99109,-2.73679 z"
         sodipodi:nodetypes="sccacccccccccss" /><path
         style="opacity:1;fill:none;stroke:#f9f9f9;stroke-width:0.5;stroke-dasharray:none"
         d="m 141.95293,125.01893 c 0,0 -1.67249,4.18123 -1.67249,6.68998 0,2.50874 1.04531,4.18123 0.20906,7.73528 -0.83625,3.55405 -3.76311,26.34178 -1.46343,37.84018 2.29968,11.4984 -11.70746,44.94828 -18.6065,54.56512 -6.89904,9.61684 -10.24402,21.11524 -10.24402,21.11524"
         id="path4" /><path
         style="opacity:1;fill:none;stroke:#f9f9f9;stroke-width:0.499999;stroke-dasharray:none"
         d="m 68.781318,126.06424 c 0,0 -0.627184,4.80842 -0.836247,6.89904 -0.209061,2.09061 -1.254371,5.85373 2.299679,12.12558 3.554049,6.27185 17.979313,31.77739 18.397436,42.43954 0.418121,10.66215 1.881555,26.34178 7.944345,34.49519 6.062789,8.1534 14.460509,22.05725 14.460509,24.14786 0.11342,2.35002 0.76469,4.47626 -0.45101,6.60845"
         id="path5"
         sodipodi:nodetypes="csssssc" /><rect
         style="opacity:1;fill:#f9f9f9;stroke:none;stroke-width:0.555718;stroke-dasharray:none"
         id="rect5"
         width="1.8476303"
         height="2.7274544"
         x="-169.49477"
         y="-220.80341"
         ry="0.69656467"
         transform="rotate(-165.95698)" /><path
         style="opacity:1;fill:none;stroke:#ffffff;stroke-width:0.8;stroke-dasharray:none"
         d="m 110.32615,254.02497 c 0,0 -2.15941,4.12251 -2.15941,8.04871 0,3.92619 -0.19631,13.54538 0.39262,16.0974 0.58893,2.55203 2.74834,14.91956 2.74834,17.07896"
         id="path6" /></g><g
       id="g11"
       transform="matrix(0.70785762,0,0,0.70785762,0.41230574,-0.39999239)"
       style="display:inline"><text
         xml:space="preserve"
         style="font-size:16.5354px;line-height:16.5354px;font-family:'Myriad Pro';-inkscape-font-specification:'Myriad Pro';text-align:justify;fill:#ffcc00;stroke:#ffffff;stroke-width:1.24993"
         x="167.7444"
         y="66.375748"
         id="text1"><tspan
           sodipodi:role="line"
           style="font-style:normal;font-variant:normal;font-weight:bold;font-stretch:normal;font-size:39.6852px;font-family:'Myriad Pro';-inkscape-font-specification:'Myriad Pro Bold';fill:#1a1a1a;stroke:none;stroke-width:1.24993"
           x="167.7444"
           y="66.375748"
           id="tspan3">iToph</tspan></text><text
         xml:space="preserve"
         style="font-size:15.4712px;line-height:15.4712px;font-family:'Myriad Pro';-inkscape-font-specification:'Myriad Pro';text-align:justify;fill:#ffcc00;stroke:#ffffff;stroke-width:1.16948"
         x="170.02193"
         y="64.562363"
         id="text9"><tspan
           sodipodi:role="line"
           id="tspan7"
           style="font-style:normal;font-variant:normal;font-weight:bold;font-stretch:normal;font-size:37.1311px;font-family:'Myriad Pro';-inkscape-font-specification:'Myriad Pro Bold';fill:#1a1a1a;stroke:none;stroke-width:1.16948"
           x="170.02193"
           y="64.562363" /><tspan
           sodipodi:role="line"
           style="fill:#1a1a1a;stroke:none;stroke-width:1.16948"
           x="170.02193"
           y="80.033562"
           id="tspan8" /><tspan
           sodipodi:role="line"
           style="fill:#1a1a1a;stroke:none;stroke-width:1.16948"
           x="170.02193"
           y="95.504761"
           id="tspan9">Think different.</tspan></text></g></g></svg>
