<?xml version="1.0" encoding="UTF-8" standalone="no"?>
<!-- Created with Inkscape (http://www.inkscape.org/) -->

<svg
   width="610.27643mm"
   height="297.86649mm"
   viewBox="0 0 610.27643 297.86649"
   version="1.1"
   id="svg1"
   xml:space="preserve"
   inkscape:version="1.3 (0e150ed, 2023-07-21)"
   sodipodi:docname="iToph.svg"
   xmlns:inkscape="http://www.inkscape.org/namespaces/inkscape"
   xmlns:sodipodi="http://sodipodi.sourceforge.net/DTD/sodipodi-0.dtd"
   xmlns="http://www.w3.org/2000/svg"
   xmlns:svg="http://www.w3.org/2000/svg"><sodipodi:namedview
     id="namedview1"
     pagecolor="#505050"
     bordercolor="#eeeeee"
     borderopacity="1"
     inkscape:showpageshadow="0"
     inkscape:pageopacity="0"
     inkscape:pagecheckerboard="0"
     inkscape:deskcolor="#505050"
     inkscape:document-units="mm"
     inkscape:zoom="0.52625669"
     inkscape:cx="406.64566"
     inkscape:cy="900.70114"
     inkscape:window-width="1728"
     inkscape:window-height="979"
     inkscape:window-x="1"
     inkscape:window-y="38"
     inkscape:window-maximized="0"
     inkscape:current-layer="layer3" /><defs
     id="defs1"><mask
       maskUnits="userSpaceOnUse"
       id="mask1"><rect
         style="display:inline;fill:#f9f9f9;fill-opacity:1;stroke:none;stroke-width:1.36103"
         id="rect1"
         width="860.78467"
         height="419.43896"
         x="30.031912"
         y="-126.05695"
         ry="0">&#10;       <animate
   attributeName="fill"
   values="#f9b71b;#1294df;#ed539b;#a3c93e;#f9b71b"
   dur="8s"
   repeatCount="indefinite" />&#10;     </rect></mask></defs><g
     inkscape:label="bg"
     inkscape:groupmode="layer"
     id="layer1"
     style="display:inline"
     transform="translate(0.39999931,0.39999931)"><rect
       style="fill:#f9b71b;fill-opacity:1;stroke:none;stroke-width:0.963416"
       id="bgRect"
       width="609.31299"
       height="296.90308"
       x="0.081708677"
       y="0.081708677"
       ry="0">&#10;       <animate
   attributeName="fill"
   values="#f9b71b;#1294df;#ed539b;#a3c93e;#f9b71b"
   dur="8s"
   repeatCount="indefinite" />&#10;     </rect></g><g
     inkscape:groupmode="layer"
     id="layer3"
     inkscape:label="iToph"
     transform="translate(0.39999931,0.39999931)"><g
       id="g6"
       transform="matrix(0.70785762,0,0,0.70785762,-21.176609,89.312084)"
       style="display:inline"
       mask="url(#mask1)"><path
         id="path1"
         style="fill:#1a1a1a;stroke-width:1.3"
         d="M 108.85785 25.216691 C 108.85785 25.216691 103.27669 30.934557 101.07198 32.725881 C 98.867271 34.517207 95.353576 40.856336 95.353576 40.856336 L 93.148855 41.200185 C 93.148855 41.200185 92.79498 38.645822 93.218209 37.479901 C 93.992887 35.345802 97.489673 32.174701 97.489673 32.174701 C 97.489673 32.174701 93.493261 35.025344 92.253096 37.066699 C 91.4112 38.45249 90.944135 41.751365 90.944135 41.751365 C 90.944135 41.751365 89.290675 41.47614 87.430453 41.47614 C 85.570231 41.47614 84.192533 42.647033 82.401208 42.853725 C 80.609883 43.060416 77.50921 43.198304 77.50921 43.198304 C 77.50921 43.198304 79.162937 44.782857 79.851908 45.058446 C 80.540879 45.334034 81.022892 45.609626 81.022892 45.609626 C 81.022892 45.609626 75.235953 47.88361 74.478084 48.090302 C 73.720216 48.296992 66.417083 51.3972 67.863923 51.259405 C 69.310762 51.121611 70.895048 50.98418 70.895048 50.98418 C 70.895048 50.98418 67.105501 54.497409 66.89881 54.979688 C 66.692118 55.461969 59.803101 61.387429 60.836558 60.974046 C 61.870015 60.560664 64.005662 59.113904 64.005662 59.113904 C 64.005662 59.113904 63.523469 59.664998 63.24788 60.422866 C 62.972292 61.180734 59.527143 67.725642 59.458243 68.414613 C 59.389345 69.103584 56.28914 78.473833 56.28914 78.473833 L 57.873326 77.647428 L 57.94268 78.198608 C 58.011575 78.749786 57.873326 83.159229 57.873326 83.159229 L 58.700462 82.538696 C 58.700462 82.538696 59.114118 85.087728 59.183018 86.258979 C 59.251918 87.43023 59.183018 88.808278 59.183018 88.808278 L 60.49198 87.086114 C 60.49198 87.086114 61.04316 90.531086 61.04316 91.288954 C 61.04316 92.046823 63.79906 96.180222 63.79906 96.180222 C 63.79906 96.180222 65.17674 98.798422 65.521225 99.280701 C 65.865711 99.762981 66.210382 101.76129 66.210382 102.51916 C 66.210382 103.27703 67.036787 104.7925 67.036787 104.7925 L 67.243389 107.20382 C 67.243389 107.20382 67.312743 108.16866 67.312743 108.78874 C 67.312743 109.40881 67.725763 111.19989 68.139148 112.16445 C 68.552529 113.129 69.448109 116.57417 69.448109 117.60762 C 69.448109 118.64108 68.965918 121.87882 69.241508 123.60125 C 69.517095 125.32368 71.533103 127.10836 71.533103 127.10836 C 71.533103 127.10836 72.633375 128.20883 72.908499 129.03421 C 73.183625 129.85959 74.009084 136.32518 74.146646 138.52619 C 74.284208 140.7272 76.210135 145.81716 77.310639 148.01817 C 78.41114 150.21917 84.051098 154.34542 84.051098 154.34542 C 84.051098 154.34542 85.426591 158.60998 85.701718 159.71049 C 85.976845 160.81098 88.178014 173.74185 88.178014 173.74185 C 88.178014 173.74185 87.352653 176.08088 87.215091 177.04382 C 87.077526 178.00676 85.839696 184.47198 85.839696 184.47198 C 85.839696 184.47198 76.622645 189.69948 75.797267 189.83704 C 74.971889 189.97461 60.945719 196.29638 56.882662 197.82003 C 52.819605 199.34368 37.075438 210.00936 34.282086 221.18277 C 31.488738 232.35617 36.567676 264.60671 37.837381 268.92373 C 39.107083 273.24072 41.645999 293.81006 41.645999 293.81006 L 109.68718 294.06265 L 248.02902 294.06265 C 247.86881 293.29194 247.16392 289.92002 247.16392 289.60138 C 247.16392 289.24604 246.14843 279.24576 246.14843 279.24576 C 246.14843 279.24576 245.94548 270.86988 245.94548 270.41301 C 245.94548 269.95615 245.53939 265.99728 245.18405 262.44389 C 244.82871 258.89051 241.63109 241.47886 241.32652 240.2098 C 241.02194 238.94073 237.46826 225.84334 237.46826 225.84334 L 237.46826 223.20425 C 237.46826 222.84891 236.35141 216.0974 235.38691 212.18868 C 234.56686 208.86529 229.4007 200.3312 229.04141 200.10651 C 228.83835 199.90346 223.05143 195.2335 223.05143 195.2335 C 217.83591 190.26896 213.28765 189.18084 206.29993 186.75627 C 205.23392 186.4517 190.00471 181.52773 190.00471 181.52773 C 190.00471 181.52773 172.79646 176.75575 171.5274 176.1466 C 170.25833 175.53745 161.37474 172.5935 161.37474 172.5935 C 161.37474 172.5935 158.07502 168.0756 157.21205 165.94357 C 156.34909 163.81153 151.5776 157.31376 151.5776 157.31376 C 151.5776 157.31376 151.01899 157.00904 149.80068 156.95824 C 148.58237 156.90748 145.74016 157.36444 145.08025 157.41524 C 144.42034 157.466 141.52641 157.16119 141.52641 157.16119 C 141.52641 157.16119 141.27309 151.93295 141.27309 151.32379 C 141.27309 150.71464 140.86674 144.21693 141.01903 141.83108 C 141.17132 139.44523 142.44042 132.745 142.44042 132.745 C 142.44042 132.745 143.10028 132.54142 143.30333 132.33837 C 143.50635 132.13531 143.50658 131.57694 143.55738 130.81551 C 143.60814 130.05407 143.96319 129.54689 144.16624 129.14079 C 144.36929 128.73469 144.82619 127.6683 144.82619 127.6683 L 146.70458 126.14544 C 146.70458 126.14544 148.22724 125.13021 148.63335 124.62258 C 149.03945 124.11496 150.81595 121.62792 151.9835 120.20657 C 153.15104 118.78522 153.65923 115.02874 153.81152 114.31806 C 153.96377 113.60738 153.81122 110.96777 153.76042 110.51091 C 153.70969 110.05405 153.70999 108.63228 153.81152 107.61703 C 153.91304 106.60177 153.45599 104.46982 153.45599 104.46982 L 154.2678 101.27152 L 155.43586 102.48996 C 155.43586 102.48996 155.1815 98.479997 155.13071 98.175421 C 155.07995 97.870845 154.42038 96.195552 154.42038 96.195552 C 154.42038 96.195552 155.94347 97.363027 156.19729 97.819891 C 156.4511 98.276756 157.415 100.10419 157.415 100.10419 C 157.415 100.10419 157.41544 98.682807 157.26315 97.921367 C 157.11086 97.159925 155.48642 94.926356 155.84176 94.977116 C 156.1971 95.027876 157.56758 95.028219 157.56758 95.028219 L 156.95872 94.824537 C 156.34958 94.621486 155.08033 93.301674 155.08033 93.301674 L 156.45062 93.454252 L 155.36286 89.979992 C 155.36286 89.979992 157.22336 90.530896 157.49895 90.599796 C 157.77454 90.668693 158.18811 90.806398 158.18811 90.806398 L 156.74117 88.808278 L 158.11876 89.428812 C 158.11876 89.428812 156.25871 83.434358 156.05202 82.538696 C 155.84532 81.643032 154.94966 80.05875 154.94966 80.05875 L 156.05202 81.091756 C 156.05202 81.091756 155.7077 80.196265 155.08763 79.025013 C 154.46755 77.853763 153.91665 73.719813 153.91665 73.719813 L 156.12137 74.822174 C 156.12137 74.822174 155.15616 73.719807 154.2605 72.617453 C 153.36484 71.515099 153.15877 69.172845 152.81429 68.139388 C 152.4698 67.105931 149.43776 59.458207 149.09327 58.975927 C 148.74879 58.493647 144.06403 54.015306 144.06403 54.015306 C 144.06403 54.015306 145.85546 54.428962 146.61333 54.497862 C 147.3712 54.566759 149.85106 55.117666 149.85106 55.117666 C 149.85106 55.117666 147.44001 53.808337 146.81993 53.532749 C 146.19986 53.257161 141.10144 45.747691 140.20577 44.989822 C 139.31011 44.231954 135.90519 41.791993 133.38501 41.062937 C 132.30311 40.749961 130.0093 40.92496 130.0093 40.92496 C 130.0093 40.92496 128.90639 38.995461 126.83947 38.444284 C 124.77251 37.893107 124.63382 37.777955 124.81288 37.374776 C 125.31132 36.252443 134.21141 33.001836 134.21141 33.001836 C 134.21141 33.001836 124.63501 35.20629 122.91258 36.377541 C 121.19015 37.548792 119.1923 38.92684 119.1923 38.92684 C 119.1923 38.92684 123.6439 34.738351 124.28433 34.294007 C 126.79841 32.549691 132.83383 29.969981 132.83383 29.969981 C 132.83383 29.969981 128.63116 31.004091 126.01306 32.382033 C 123.39498 33.759975 117.88334 38.100435 117.88334 38.100435 L 116.09182 37.82448 C 116.83969 33.614584 122.47504 31.390972 124.56612 28.661019 C 124.56612 28.661019 119.21263 31.683774 116.83938 33.61434 C 115.36277 34.815513 112.84387 37.693803 112.84387 37.693803 C 112.84387 37.693803 112.37144 37.962367 110.9246 38.169059 C 109.47776 38.375751 102.85684 39.133805 103.06353 38.858217 C 103.27022 38.582628 109.27088 34.999679 110.23544 34.517399 C 111.2 34.03512 117.60738 30.797116 117.60738 30.797116 L 106.58378 34.999956 L 115.19606 29.626132 C 110.11453 31.77582 105.14393 33.829807 100.79675 37.411278 L 109.33968 30.452537 L 113.6805 27.283434 C 113.6805 27.283434 107.68658 30.521804 106.10195 31.279672 C 104.51732 32.037541 101.48591 34.793354 101.48591 34.793354 C 101.48591 34.793354 103.69044 32.450927 104.10383 31.830852 C 104.51721 31.210778 108.85785 25.216691 108.85785 25.216691 z " /><path
         id="rect1-5"
         style="opacity:1;fill:#f9f9f9;stroke-width:2.3926"
         d="m 93.741653,103.98574 -1.48e-4,8.53577 c 0,0.75084 0.60479,1.35518 1.355624,1.35518 l 0.118703,2.1e-4 c 0.750834,0 1.355594,-0.60457 1.355594,-1.3554 l -6.7e-5,-2.36956 c -1.399243,-1.2179 -1.487385,-2.68287 -2.027705,-4.15582 -0.166644,-0.40112 -0.482247,-1.19887 -0.802001,-2.01038 z"
         transform="matrix(0.98425241,0.17676874,-0.2181121,0.97592372,0,0)"
         sodipodi:nodetypes="ccccccsc" /><path
         id="path2"
         style="fill:#f9f9f9;stroke-width:2.88044"
         d="m 143.52716,111.2392 c -0.0156,-10e-4 -0.03,-1.1e-4 -0.0429,0.003 -0.31039,0.0776 -0.32804,0.44765 -0.5138,1.50492 0.90201,1.07374 1.36913,1.98981 1.42869,3.13739 0.0836,1.60966 0.0485,3.49385 -1.5376,4.58451 l -1.88412,4.72478 c -0.28533,0.71561 0.073,1.48876 0.80357,1.73323 l 0.21084,0.0708 c 0.73058,0.24448 1.54867,-0.13497 1.834,-0.85059 l 4.32635,-10.8505 c 0.28533,-0.71562 -0.073,-1.48876 -0.80357,-1.73323 l -0.21084,-0.0703 c -0.59251,-0.19827 -1.24284,0.0137 -1.61954,0.48266 -0.24041,-1.20757 -1.5761,-2.70938 -1.99109,-2.73679 z"
         sodipodi:nodetypes="sccacccccccccss" /><path
         style="opacity:1;fill:none;stroke:#f9f9f9;stroke-width:0.5;stroke-dasharray:none"
         d="m 141.95293,125.01893 c 0,0 -1.67249,4.18123 -1.67249,6.68998 0,2.50874 1.04531,4.18123 0.20906,7.73528 -0.83625,3.55405 -3.76311,26.34178 -1.46343,37.84018 2.29968,11.4984 -11.70746,44.94828 -18.6065,54.56512 -6.89904,9.61684 -10.24402,21.11524 -10.24402,21.11524"
         id="path4" /><path
         style="opacity:1;fill:none;stroke:#f9f9f9;stroke-width:0.499999;stroke-dasharray:none"
         d="m 68.781318,126.06424 c 0,0 -0.627184,4.80842 -0.836247,6.89904 -0.209061,2.09061 -1.254371,5.85373 2.299679,12.12558 3.554049,6.27185 17.979313,31.77739 18.397436,42.43954 0.418121,10.66215 1.881555,26.34178 7.944345,34.49519 6.062789,8.1534 14.460509,22.05725 14.460509,24.14786 0.11342,2.35002 0.76469,4.47626 -0.45101,6.60845"
         id="path5"
         sodipodi:nodetypes="csssssc" /><rect
         style="opacity:1;fill:#f9f9f9;stroke:none;stroke-width:0.555718;stroke-dasharray:none"
         id="rect5"
         width="1.8476303"
         height="2.7274544"
         x="-169.49477"
         y="-220.80341"
         ry="0.69656467"
         transform="rotate(-165.95698)" /><path
         style="opacity:1;fill:none;stroke:#ffffff;stroke-width:0.8;stroke-dasharray:none"
         d="m 110.32615,254.02497 c 0,0 -2.15941,4.12251 -2.15941,8.04871 0,3.92619 -0.19631,13.54538 0.39262,16.0974 0.58893,2.55203 2.74834,14.91956 2.74834,17.07896"
         id="path6" /></g><g
       id="g11"
       transform="matrix(0.70785762,0,0,0.70785762,-0.11686093,-0.39999239)"
       style="display:inline"><text
         xml:space="preserve"
         style="font-size:16.5354px;line-height:16.5354px;font-family:'Myriad Pro';-inkscape-font-specification:'Myriad Pro';text-align:justify;fill:#ffcc00;stroke:#ffffff;stroke-width:1.24993"
         x="167.7444"
         y="66.375748"
         id="text1"><tspan
           sodipodi:role="line"
           style="font-style:normal;font-variant:normal;font-weight:bold;font-stretch:normal;font-size:39.6852px;font-family:'Myriad Pro';-inkscape-font-specification:'Myriad Pro Bold';fill:#1a1a1a;stroke:none;stroke-width:1.24993"
           x="167.7444"
           y="66.375748"
           id="tspan3">iToph</tspan></text><text
         xml:space="preserve"
         style="font-size:15.4712px;line-height:15.4712px;font-family:'Myriad Pro';-inkscape-font-specification:'Myriad Pro';text-align:justify;fill:#ffcc00;stroke:#ffffff;stroke-width:1.16948"
         x="170.02193"
         y="64.562363"
         id="text9"><tspan
           sodipodi:role="line"
           id="tspan7"
           style="font-style:normal;font-variant:normal;font-weight:bold;font-stretch:normal;font-size:37.1311px;font-family:'Myriad Pro';-inkscape-font-specification:'Myriad Pro Bold';fill:#1a1a1a;stroke:none;stroke-width:1.16948"
           x="170.02193"
           y="64.562363" /><tspan
           sodipodi:role="line"
           style="fill:#1a1a1a;stroke:none;stroke-width:1.16948"
           x="170.02193"
           y="80.033562"
           id="tspan8" /><tspan
           sodipodi:role="line"
           style="fill:#1a1a1a;stroke:none;stroke-width:1.16948"
           x="170.02193"
           y="95.504761"
           id="tspan9">Think different.</tspan></text></g></g><g
     inkscape:groupmode="layer"
     id="layer2"
     inkscape:label="colour ref"
     sodipodi:insensitive="true"
     style="display:none"
     transform="translate(0.39999931,0.39999931)"><g
       id="g12"
       transform="translate(-3.3859413,-0.3999995)"
       style="display:inline"><rect
         style="fill:#f9b71b;fill-opacity:1;stroke:none;stroke-width:0.799999"
         id="rect3"
         width="99.464378"
         height="66.937111"
         x="363.71063"
         y="0"
         ry="0.69656467" /><rect
         style="fill:#1294df;fill-opacity:1;stroke:none;stroke-width:0.799999"
         id="rect4"
         width="99.464378"
         height="66.937111"
         x="463.17502"
         y="0"
         ry="0.69656467" /><rect
         style="fill:#ed539b;fill-opacity:1;stroke:none;stroke-width:0.799999"
         id="rect6"
         width="99.464378"
         height="66.937111"
         x="363.71063"
         y="66.937111"
         ry="0.69656467" /><rect
         style="fill:#a3c93e;fill-opacity:1;stroke:none;stroke-width:0.799999"
         id="rect7"
         width="99.464378"
         height="66.937111"
         x="463.17502"
         y="66.937111"
         ry="0.69656467" /></g></g></svg>
