<?xml version="1.0" encoding="UTF-8" standalone="no"?>
<!-- Created with Inkscape (http://www.inkscape.org/) -->

<svg
   width="610.27643mm"
   height="297.86649mm"
   viewBox="0 0 610.27643 297.86649"
   version="1.1"
   id="svg1"
   xml:space="preserve"
   inkscape:version="1.3 (0e150ed, 2023-07-21)"
   sodipodi:docname="iToph.svg"
   xmlns:inkscape="http://www.inkscape.org/namespaces/inkscape"
   xmlns:sodipodi="http://sodipodi.sourceforge.net/DTD/sodipodi-0.dtd"
   xmlns="http://www.w3.org/2000/svg"
   xmlns:svg="http://www.w3.org/2000/svg"><sodipodi:namedview
     id="namedview1"
     pagecolor="#505050"
     bordercolor="#eeeeee"
     borderopacity="1"
     inkscape:showpageshadow="0"
     inkscape:pageopacity="0"
     inkscape:pagecheckerboard="0"
     inkscape:deskcolor="#505050"
     inkscape:document-units="mm"
     inkscape:zoom="0.27883897"
     inkscape:cx="1047.1994"
     inkscape:cy="1136.8569"
     inkscape:window-width="1728"
     inkscape:window-height="979"
     inkscape:window-x="0"
     inkscape:window-y="38"
     inkscape:window-maximized="0"
     inkscape:current-layer="layer1" /><defs
     id="defs1" /><g
     inkscape:label="bg"
     inkscape:groupmode="layer"
     id="layer1"
     style="display:inline"
     transform="translate(0.39999931,0.39999931)"><rect
       style="fill:#f9b71b;fill-opacity:1;stroke:#ffffff;stroke-width:0.963416"
       id="bgRect"
       width="609.31299"
       height="296.90308"
       x="0.081708677"
       y="0.081708677"
       ry="0.49240997">&#10;       <animate
   attributeName="fill"
   values="#f9b71b;#1294df;#ed539b;#a3c93e;#f9b71b"
   dur="8s"
   repeatCount="indefinite" />&#10;     </rect></g><g
     inkscape:groupmode="layer"
     id="layer3"
     inkscape:label="iToph"
     transform="translate(0.39999931,0.39999931)"><g
       id="g6"
       transform="matrix(0.70785762,0,0,0.70785762,-21.176609,89.312084)"
       style="display:inline"><path
         style="fill:#1a1a1a;stroke-width:1.3"
         d="m 41.646363,293.81002 c 0,0 -2.539412,-20.56923 -3.809116,-24.88623 -1.269706,-4.31702 -6.348531,-36.56755 -3.55518,-47.74096 2.793355,-11.17342 18.537711,-21.83895 22.600772,-23.3626 4.063061,-1.52365 18.089017,-7.84567 18.914395,-7.98324 0.825379,-0.13756 10.042102,-5.36495 10.042102,-5.36495 0,0 1.238067,-6.46547 1.375632,-7.42841 0.137562,-0.96294 0.962941,-3.30151 0.962941,-3.30151 0,0 -2.201008,-12.93093 -2.476135,-14.03143 -0.275127,-1.10051 -1.650757,-5.36496 -1.650757,-5.36496 0,0 -5.640086,-4.12689 -6.740588,-6.3279 -1.100505,-2.20101 -3.026389,-7.29084 -3.163951,-9.49185 -0.137562,-2.20101 -0.962941,-8.66647 -1.238068,-9.49185 -0.275124,-0.82538 -1.375629,-1.92588 -1.375629,-1.92588 0,0 -2.015522,-1.78427 -2.291109,-3.5067 -0.27559,-1.72243 0.20669,-4.9606 0.20669,-5.99406 0,-1.03345 -0.895663,-4.47831 -1.309045,-5.44287 -0.413385,-0.96456 -0.826767,-2.75589 -0.826767,-3.37596 0,-0.62008 -0.0689,-1.58464 -0.0689,-1.58464 l -0.20669,-2.4114 c 0,0 -0.826767,-1.51574 -0.826767,-2.27361 0,-0.75787 -0.344485,-2.755886 -0.688972,-3.238166 -0.344485,-0.48228 -1.72243,-3.100374 -1.72243,-3.100374 0,0 -2.755884,-4.133829 -2.755884,-4.891699 0,-0.757869 -0.551178,-4.202728 -0.551178,-4.202728 l -1.309046,1.72243 c 0,0 0.0689,-1.377944 0,-2.549196 -0.0689,-1.171252 -0.482281,-3.720448 -0.482281,-3.720448 l -0.826766,0.620075 c 0,0 0.137795,-4.40942 0.0689,-4.960598 l -0.0689,-0.551177 -1.584635,0.826766 c 0,0 3.100373,-9.370017 3.169271,-10.058989 0.0689,-0.688972 3.513756,-7.234205 3.789345,-7.992074 0.275589,-0.757869 0.757869,-1.309046 0.757869,-1.309046 0,0 -2.135813,1.446841 -3.169271,1.860224 -1.033458,0.413383 5.856261,-5.511775 6.062953,-5.994056 0.206691,-0.48228 3.996036,-3.996036 3.996036,-3.996036 0,0 -1.584635,0.137794 -3.031476,0.275588 -1.446841,0.137795 5.856261,-2.962579 6.61413,-3.16927 0.757869,-0.206692 6.545233,-2.480299 6.545233,-2.480299 0,0 -0.482281,-0.275589 -1.171252,-0.551177 -0.688972,-0.275589 -2.342505,-1.860224 -2.342505,-1.860224 0,0 3.100374,-0.137795 4.8917,-0.344486 1.791327,-0.206692 3.169271,-1.377944 5.029495,-1.377944 1.860224,0 3.513757,0.275589 3.513757,0.275589 0,0 0.467149,-3.299216 1.309046,-4.685009 1.240166,-2.041357 5.236186,-4.8917 5.236186,-4.8917 0,0 -3.496946,3.170981 -4.271625,5.305083 -0.42323,1.165922 -0.0689,3.720448 -0.0689,3.720448 l 2.20471,-0.344486 c 0,0 3.513757,-6.338541 5.718467,-8.129868 2.20471,-1.791326 7.78538,-7.509793 7.78538,-7.509793 0,0 -4.34052,5.994055 -4.7539,6.61413 -0.41339,0.620075 -2.61809,2.962579 -2.61809,2.962579 0,0 3.03147,-2.755888 4.61611,-3.513757 1.58463,-0.757869 7.57869,-3.996036 7.57869,-3.996036 l -4.34053,3.16927 -8.54325,6.958616 c 4.34718,-3.581474 9.31798,-5.635692 14.39952,-7.785382 l -8.61215,5.37398 11.02355,-4.202728 c 0,0 -6.40744,3.238168 -7.372,3.720448 -0.96456,0.48228 -6.96546,4.064934 -7.17215,4.340523 -0.20669,0.275589 6.41428,-0.48228 7.86112,-0.688972 1.44684,-0.206692 1.91913,-0.475108 1.91913,-0.475108 0,0 2.51942,-2.878104 3.99603,-4.079278 2.37325,-1.930568 7.72648,-4.953426 7.72648,-4.953426 -2.09109,2.729956 -7.72648,4.953426 -8.47435,9.163326 l 1.79133,0.275589 c 0,0 5.51177,-4.340523 8.12986,-5.718467 2.6181,-1.377943 6.82082,-2.411401 6.82082,-2.411401 0,0 -6.03521,2.579475 -8.54929,4.323793 -0.64043,0.444344 -5.09235,4.632841 -5.09235,4.632841 0,0 1.99802,-1.377944 3.72045,-2.549196 1.72243,-1.171252 11.29914,-3.375962 11.29914,-3.375962 0,0 -8.90052,3.250507 -9.39896,4.372841 -0.17906,0.40318 -0.04,0.518859 2.02696,1.070037 2.06692,0.551177 3.16927,2.480298 3.16927,2.480298 0,0 2.29406,-0.175182 3.37596,0.137795 2.52019,0.729056 5.92516,3.16927 6.82082,3.927139 0.89567,0.75787 5.99406,8.267663 6.61413,8.543252 0.62008,0.275588 3.03148,1.584635 3.03148,1.584635 0,0 -2.4803,-0.551178 -3.23817,-0.620075 -0.75787,-0.0689 -2.54919,-0.48228 -2.54919,-0.48228 0,0 4.685,4.478317 5.02949,4.960597 0.34449,0.482281 3.37596,8.129868 3.72045,9.163326 0.34448,1.033458 0.55118,3.375962 1.44684,4.478317 0.89566,1.102355 1.86022,2.20471 1.86022,2.20471 l -2.20471,-1.102355 c 0,0 0.55118,4.133831 1.17126,5.305083 0.62007,1.171253 0.96456,2.066916 0.96456,2.066916 l -1.10236,-1.033458 c 0,0 0.89566,1.584635 1.10236,2.480299 0.20669,0.895663 2.06691,6.889718 2.06691,6.889718 l -1.37794,-0.620074 1.44684,1.998018 c 0,0 -0.41338,-0.137794 -0.68897,-0.206691 -0.27559,-0.0689 -2.13582,-0.620075 -2.13582,-0.620075 l 1.08771,3.474538 -1.37059,-0.152289 c 0,0 1.26907,1.319832 1.87822,1.522884 l 0.60915,0.203051 c 0,0 -1.37059,0 -1.72593,-0.05076 -0.35534,-0.05076 1.26907,2.182799 1.42136,2.944241 0.15229,0.761441 0.15229,2.1828 0.15229,2.1828 0,0 -0.9645,-1.827461 -1.21831,-2.284326 -0.25382,-0.456865 -1.7767,-1.624409 -1.7767,-1.624409 0,0 0.65992,1.675172 0.71068,1.979748 0.0508,0.304577 0.30458,4.314837 0.30458,4.314837 l -1.16755,-1.21831 -0.8122,3.19805 c 0,0 0.45686,2.13204 0.35534,3.1473 -0.10153,1.01525 -0.10153,2.43661 -0.0508,2.89347 0.0508,0.45687 0.20305,3.09653 0.0508,3.80721 -0.15229,0.71068 -0.65992,4.46713 -1.82746,5.88848 -1.16755,1.42136 -2.94424,3.90874 -3.35034,4.41636 -0.40611,0.50763 -1.92899,1.52289 -1.92899,1.52289 l -1.87822,1.52288 c 0,0 -0.45687,1.06602 -0.65992,1.47212 -0.20305,0.4061 -0.55839,0.91373 -0.60915,1.67517 -0.0508,0.76144 -0.0508,1.31983 -0.25382,1.52289 -0.20305,0.20305 -0.86296,0.4061 -0.86296,0.4061 0,0 -1.26907,6.70068 -1.42136,9.08653 -0.15229,2.38585 0.25381,8.88349 0.25381,9.49264 0,0.60916 0.25382,5.83772 0.25382,5.83772 0,0 2.89348,0.30458 3.55339,0.25382 0.65992,-0.0508 3.50263,-0.50763 4.72094,-0.45687 1.21831,0.0508 1.7767,0.35534 1.7767,0.35534 0,0 4.7717,6.49763 5.63466,8.62967 0.86297,2.13204 4.16255,6.64992 4.16255,6.64992 0,0 8.88349,2.94424 10.15256,3.5534 1.26906,0.60915 18.47764,5.38085 18.47764,5.38085 0,0 15.22884,4.92399 16.29485,5.22857 6.98772,2.42457 11.5362,3.51284 16.75172,8.47738 0,0 5.78695,4.67017 5.99001,4.87323 0.35929,0.22469 5.52529,8.75815 6.34534,12.08154 0.9645,3.90873 2.08128,10.66018 2.08128,11.01552 v 2.63966 c 0,0 3.55339,13.0968 3.85797,14.36587 0.30457,1.26906 3.50263,18.6807 3.85797,22.23409 0.35534,3.55339 0.76144,7.51289 0.76144,7.96975 0,0.45687 0.20305,8.83273 0.20305,8.83273 0,0 1.01526,10.00026 1.01526,10.3556 0,0.35534 0.96449,4.97475 0.96449,4.97475 z"
         id="path1"
         sodipodi:nodetypes="csssscscscssscssssccsscsccsccsccsscsscsscscsscacaccscscsccccccssscacccscscscsscasscscsssccsccscccscccscsscscscccscsssccssscsscsscscscscssscssscscc" /><path
         id="rect1-5"
         style="opacity:1;fill:#f9f9f9;stroke-width:2.3926"
         d="m 93.741653,103.98574 -1.48e-4,8.53577 c 0,0.75084 0.60479,1.35518 1.355624,1.35518 l 0.118703,2.1e-4 c 0.750834,0 1.355594,-0.60457 1.355594,-1.3554 l -6.7e-5,-2.36956 c -1.399243,-1.2179 -1.487385,-2.68287 -2.027705,-4.15582 -0.166644,-0.40112 -0.482247,-1.19887 -0.802001,-2.01038 z"
         transform="matrix(0.98425241,0.17676874,-0.2181121,0.97592372,0,0)"
         sodipodi:nodetypes="ccccccsc" /><path
         id="path2"
         style="fill:#f9f9f9;stroke-width:2.88044"
         d="m 143.52716,111.2392 c -0.0156,-10e-4 -0.03,-1.1e-4 -0.0429,0.003 -0.31039,0.0776 -0.32804,0.44765 -0.5138,1.50492 0.90201,1.07374 1.36913,1.98981 1.42869,3.13739 0.0836,1.60966 0.0485,3.49385 -1.5376,4.58451 l -1.88412,4.72478 c -0.28533,0.71561 0.073,1.48876 0.80357,1.73323 l 0.21084,0.0708 c 0.73058,0.24448 1.54867,-0.13497 1.834,-0.85059 l 4.32635,-10.8505 c 0.28533,-0.71562 -0.073,-1.48876 -0.80357,-1.73323 l -0.21084,-0.0703 c -0.59251,-0.19827 -1.24284,0.0137 -1.61954,0.48266 -0.24041,-1.20757 -1.5761,-2.70938 -1.99109,-2.73679 z"
         sodipodi:nodetypes="sccacccccccccss" /><path
         style="opacity:1;fill:none;stroke:#f9f9f9;stroke-width:0.5;stroke-dasharray:none"
         d="m 141.95293,125.01893 c 0,0 -1.67249,4.18123 -1.67249,6.68998 0,2.50874 1.04531,4.18123 0.20906,7.73528 -0.83625,3.55405 -3.76311,26.34178 -1.46343,37.84018 2.29968,11.4984 -11.70746,44.94828 -18.6065,54.56512 -6.89904,9.61684 -10.24402,21.11524 -10.24402,21.11524"
         id="path4" /><path
         style="opacity:1;fill:none;stroke:#f9f9f9;stroke-width:0.499999;stroke-dasharray:none"
         d="m 68.781318,126.06424 c 0,0 -0.627184,4.80842 -0.836247,6.89904 -0.209061,2.09061 -1.254371,5.85373 2.299679,12.12558 3.554049,6.27185 17.979313,31.77739 18.397436,42.43954 0.418121,10.66215 1.881555,26.34178 7.944345,34.49519 6.062789,8.1534 14.460509,22.05725 14.460509,24.14786 0.11342,2.35002 0.76469,4.47626 -0.45101,6.60845"
         id="path5"
         sodipodi:nodetypes="csssssc" /><rect
         style="opacity:1;fill:#f9f9f9;stroke:none;stroke-width:0.555718;stroke-dasharray:none"
         id="rect5"
         width="1.8476303"
         height="2.7274544"
         x="-169.49477"
         y="-220.80341"
         ry="0.69656467"
         transform="rotate(-165.95698)" /><path
         style="opacity:1;fill:none;stroke:#ffffff;stroke-width:0.8;stroke-dasharray:none"
         d="m 110.32615,254.02497 c 0,0 -2.15941,4.12251 -2.15941,8.04871 0,3.92619 -0.19631,13.54538 0.39262,16.0974 0.58893,2.55203 2.74834,14.91956 2.74834,17.07896"
         id="path6" /></g><g
       id="g11"
       transform="matrix(0.70785762,0,0,0.70785762,-0.11686093,-0.39999239)"
       style="display:inline"><text
         xml:space="preserve"
         style="font-size:16.5354px;line-height:16.5354px;font-family:'Myriad Pro';-inkscape-font-specification:'Myriad Pro';text-align:justify;fill:#ffcc00;stroke:#ffffff;stroke-width:1.24993"
         x="167.7444"
         y="66.375748"
         id="text1"><tspan
           sodipodi:role="line"
           style="font-style:normal;font-variant:normal;font-weight:bold;font-stretch:normal;font-size:39.6852px;font-family:'Myriad Pro';-inkscape-font-specification:'Myriad Pro Bold';fill:#1a1a1a;stroke:none;stroke-width:1.24993"
           x="167.7444"
           y="66.375748"
           id="tspan3">iToph</tspan></text><text
         xml:space="preserve"
         style="font-size:15.4712px;line-height:15.4712px;font-family:'Myriad Pro';-inkscape-font-specification:'Myriad Pro';text-align:justify;fill:#ffcc00;stroke:#ffffff;stroke-width:1.16948"
         x="170.02193"
         y="64.562363"
         id="text9"><tspan
           sodipodi:role="line"
           id="tspan7"
           style="font-style:normal;font-variant:normal;font-weight:bold;font-stretch:normal;font-size:37.1311px;font-family:'Myriad Pro';-inkscape-font-specification:'Myriad Pro Bold';fill:#1a1a1a;stroke:none;stroke-width:1.16948"
           x="170.02193"
           y="64.562363" /><tspan
           sodipodi:role="line"
           style="fill:#1a1a1a;stroke:none;stroke-width:1.16948"
           x="170.02193"
           y="80.033562"
           id="tspan8" /><tspan
           sodipodi:role="line"
           style="fill:#1a1a1a;stroke:none;stroke-width:1.16948"
           x="170.02193"
           y="95.504761"
           id="tspan9">Think different.</tspan></text></g></g><g
     inkscape:groupmode="layer"
     id="layer2"
     inkscape:label="colour ref"
     sodipodi:insensitive="true"
     style="display:none"
     transform="translate(0.39999931,0.39999931)"><g
       id="g12"
       transform="translate(-3.3859413,-0.3999995)"
       style="display:inline"><rect
         style="fill:#f9b71b;fill-opacity:1;stroke:none;stroke-width:0.799999"
         id="rect3"
         width="99.464378"
         height="66.937111"
         x="363.71063"
         y="0"
         ry="0.69656467" /><rect
         style="fill:#1294df;fill-opacity:1;stroke:none;stroke-width:0.799999"
         id="rect4"
         width="99.464378"
         height="66.937111"
         x="463.17502"
         y="0"
         ry="0.69656467" /><rect
         style="fill:#ed539b;fill-opacity:1;stroke:none;stroke-width:0.799999"
         id="rect6"
         width="99.464378"
         height="66.937111"
         x="363.71063"
         y="66.937111"
         ry="0.69656467" /><rect
         style="fill:#a3c93e;fill-opacity:1;stroke:none;stroke-width:0.799999"
         id="rect7"
         width="99.464378"
         height="66.937111"
         x="463.17502"
         y="66.937111"
         ry="0.69656467" /></g></g></svg>
